<svg width="41" height="53" viewBox="0 0 41 53" fill="none" xmlns="http://www.w3.org/2000/svg">
<path d="M20.5 26.5C23.6068 26.5 26.5864 25.104 28.7833 22.6192C30.9801 20.1343 32.2143 16.7641 32.2143 13.25C32.2143 9.73588 30.9801 6.36569 28.7833 3.88084C26.5864 1.39598 23.6068 0 20.5 0C17.3932 0 14.4136 1.39598 12.2167 3.88084C10.0199 6.36569 8.78571 9.73588 8.78571 13.25C8.78571 16.7641 10.0199 20.1343 12.2167 22.6192C14.4136 25.104 17.3932 26.5 20.5 26.5ZM16.3176 31.4688C7.30313 31.4688 0 39.7293 0 49.9256C0 51.6232 1.21719 53 2.71808 53H38.2819C39.7828 53 41 51.6232 41 49.9256C41 39.7293 33.6969 31.4688 24.6824 31.4688H16.3176Z" fill="white"/>
</svg>
